<?xml version="1.0" encoding="UTF-8" standalone="no"?>
<!DOCTYPE svg PUBLIC "-//W3C//DTD SVG 1.1//EN"
 "http://www.w3.org/Graphics/SVG/1.1/DTD/svg11.dtd">
<!-- Generated by graphviz version 2.43.0 (0)
 -->
<!-- Title: pastafarianism Pages: 1 -->
<svg width="256pt" height="116pt"
 viewBox="0.00 0.00 256.47 116.00" xmlns="http://www.w3.org/2000/svg" xmlns:xlink="http://www.w3.org/1999/xlink">
<g id="graph0" class="graph" transform="scale(1 1) rotate(0) translate(4 112)">
<title>pastafarianism</title>
<polygon fill="white" stroke="transparent" points="-4,4 -4,-112 252.47,-112 252.47,4 -4,4"/>
<!-- Root -->
<g id="node1" class="node">
<title>Root</title>
<polygon fill="orange" stroke="black" points="148.43,-108 94.43,-108 94.43,-72 148.43,-72 148.43,-108"/>
<text text-anchor="middle" x="121.43" y="-87.8" font-family="Times,serif" font-size="9.00">Ⓜ Root</text>
</g>
<!-- Set Key Behavior -->
<g id="node2" class="node">
<title>Set Key Behavior</title>
<ellipse fill="gray" stroke="black" cx="55.43" cy="-18" rx="55.35" ry="18"/>
<text text-anchor="middle" x="55.43" y="-15.8" font-family="Times,serif" font-size="9.00">Set Key Behavior</text>
</g>
<!-- Root&#45;&gt;Set Key Behavior -->
<g id="edge1" class="edge">
<title>Root&#45;&gt;Set Key Behavior</title>
<path fill="none" stroke="black" d="M105.11,-71.7C97,-63.09 87.06,-52.55 78.21,-43.17"/>
<polygon fill="black" stroke="black" points="80.5,-40.5 71.1,-35.62 75.41,-45.3 80.5,-40.5"/>
</g>
<!-- Read Key Behavior -->
<g id="node3" class="node">
<title>Read Key Behavior</title>
<ellipse fill="gray" stroke="black" cx="188.43" cy="-18" rx="60.09" ry="18"/>
<text text-anchor="middle" x="188.43" y="-15.8" font-family="Times,serif" font-size="9.00">Read Key Behavior</text>
</g>
<!-- Root&#45;&gt;Read Key Behavior -->
<g id="edge2" class="edge">
<title>Root&#45;&gt;Read Key Behavior</title>
<path fill="none" stroke="black" d="M137.99,-71.7C146.3,-63.01 156.51,-52.34 165.56,-42.89"/>
<polygon fill="black" stroke="black" points="168.13,-45.27 172.52,-35.62 163.07,-40.43 168.13,-45.27"/>
</g>
</g>
</svg>
